Coordinates
version=1
nRows=11
nColumns=36
inDegrees=yes

Units are S.I. units (second, meters, Newtons, ...)
If the header above contains a line with 'inDegrees', this indicates whether rotational values are in degrees (yes) or radians (no).

endheader
time	pelvis_tilt	pelvis_list	pelvis_rotation	pelvis_tx	pelvis_ty	pelvis_tz	hip_flexion_r	hip_adduction_r	hip_rotation_r	knee_angle_r	knee_angle_r_beta	ankle_angle_r	subtalar_angle_r	mtp_angle_r	hip_flexion_l	hip_adduction_l	hip_rotation_l	knee_angle_l	knee_angle_l_beta	ankle_angle_l	subtalar_angle_l	mtp_angle_l	lumbar_extension	lumbar_bending	lumbar_rotation	arm_flex_r	arm_add_r	arm_rot_r	elbow_flex_r	pro_sup_r	arm_flex_l	arm_add_l	arm_rot_l	elbow_flex_l	pro_sup_l
      0.65000000	      1.80657877	      1.81377442	     -6.80463470	      0.71063394	      0.93195871	     -0.22250622	    -14.87301776	     -1.38992962	      3.47781777	     32.08076425	      0.55991496	     -6.20795735	    -12.55505323	     -7.12322678	     21.63032625	      3.90965888	     -1.58558711	     18.14955168	      0.31676943	     -6.89087125	    -18.91617053	     -7.12322678	     -4.75175676	     -3.35340726	      7.87650765	      0.46144460	     -6.71358912	    -11.09931530	     50.63773709	    112.42738208	    -13.68240861	     -8.63117676	    -11.77726027	     15.13963938	    104.23561986
      0.66000000	      1.94370445	      2.33162227	     -6.32101995	      0.72448952	      0.93364212	     -0.22433936	    -12.90710605	     -2.06383378	      2.81203501	     36.35818672	      0.63457007	    -10.00583518	    -13.41484894	     -7.13872434	     20.81371338	      4.87294846	     -1.07039226	     18.61899696	      0.32496280	     -5.87229781	    -19.10397603	     -7.13872434	     -4.76934121	     -4.01882357	      7.22333288	     -0.15727796	     -6.23931274	    -11.25049568	     49.73683229	    112.44088493	    -12.88886468	     -8.71311017	    -11.38582137	     15.56993619	    104.40661023
      0.67000000	      2.15260445	      2.93641344	     -5.87990736	      0.73803486	      0.93541226	     -0.22620686	    -10.84747241	     -2.95282079	      2.10176797	     40.67042310	      0.70983279	    -13.29487165	    -13.26609828	     -7.14324388	     19.74809969	      5.92468799	     -0.60144180	     18.71147695	      0.32657688	     -4.92116185	    -19.22500903	     -7.14324388	     -4.91505077	     -4.77422922	      6.59946087	     -0.77601595	     -5.81626043	    -11.31341728	     48.93133611	    112.41396175	    -11.97739617	     -8.75993447	    -11.19474822	     16.09367670	    104.51096615
      0.68000000	      2.12256741	      3.40403945	     -5.44667109	      0.75111254	      0.93683831	     -0.22793481	     -8.40886602	     -3.62439965	      1.61203998	     44.88056944	      0.78331371	    -16.94534912	    -14.14294911	     -7.15057005	     18.93281914	      6.74793973	     -0.23081031	     18.77030858	      0.32760369	     -4.04160410	    -19.09066634	     -7.15057005	     -4.83679680	     -5.34122054	      5.92863096	     -1.24924532	     -5.35241558	    -11.45981816	     47.76958842	    112.39147103	    -11.14381345	     -8.79210684	    -10.89083619	     16.83429738	    104.70367974
      0.69000000	      2.14403734	      3.75072373	     -5.10835621	      0.76384547	      0.93835372	     -0.22932935	     -6.03649936	     -4.13274019	      1.32454304	     48.71611848	      0.85025667	    -20.63539450	    -15.62892227	     -7.16480112	     17.99776193	      7.34303154	     -0.15815075	     18.71597883	      0.32665545	     -2.92122086	    -18.59849147	     -7.16480112	     -4.85123921	     -5.78841524	      5.21948580	     -1.56253410	     -4.89984168	    -11.48450156	     46.50036938	    112.44190966	    -10.31285410	     -8.81104950	    -10.54890113	     17.66885294	    105.02695754
      0.70000000	      2.23254593	      4.15876178	     -4.85061074	      0.77641093	      0.93994552	     -0.23071915	     -3.72747027	     -4.81964905	      1.02917132	     52.29343381	      0.91269260	    -22.35560314	    -15.77613832	     -7.16934937	     16.81175038	      8.01131459	     -0.02634212	     18.27908596	      0.31903023	     -2.07780408	    -18.31664299	     -7.16934937	     -4.96511544	     -6.27943211	      4.70913861	     -2.01764256	     -4.52716072	    -11.54800595	     45.48667077	    112.42162001	     -9.26796451	     -8.80010424	    -10.32405485	     18.40171930	    105.18808479
      0.71000000	      2.17988116	      4.33339292	     -4.64944041	      0.78857613	      0.94139296	     -0.23178869	     -1.30018440	     -5.12182210	      0.93969386	     55.47087029	      0.96814933	    -23.63524177	    -17.11214632	     -7.18841157	     15.86121256	      8.29537098	     -0.27276777	     18.02025222	      0.31451273	     -0.72316600	    -17.09448863	     -7.18841157	     -4.96299447	     -6.51330076	      4.08053277	     -2.17730848	     -4.15763159	    -11.53426186	     43.95243800	    112.53789466	     -8.38862664	     -8.80072520	     -9.88691579	     19.39108869	    105.63808168
      0.72000000	      2.18823585	      4.52323372	     -4.54817808	      0.80062154	      0.94296199	     -0.23280968	      1.00433472	     -5.47202850	      0.91582057	     58.25120741	      1.01667536	    -23.23646164	    -17.91504358	     -7.19296295	     14.68476744	      8.62722013	     -0.33970566	     17.41209087	      0.30389832	     -0.01852107	    -16.68815948	     -7.19296295	     -5.04023254	     -6.73396590	      3.68967193	     -2.51406657	     -3.83858530	    -11.66427700	     42.77069451	    112.50390479	     -7.26442294	     -8.72975934	     -9.59794741	     20.19204246	    105.80446086
      0.73000000	      2.09896898	      4.53119591	     -4.49969123	      0.81238264	      0.94447074	     -0.23365806	      3.36901921	     -5.52966694	      1.03517871	     60.62136005	      1.05804233	    -21.84488578	    -18.64082150	     -7.20507581	     13.69835246	      8.67923861	     -0.70410662	     16.97919889	      0.29634292	      1.13489508	    -15.50810856	     -7.20507581	     -5.03520694	     -6.74640754	      3.18347532	     -2.59131952	     -3.53897192	    -11.76581552	     41.14832883	    112.56225503	     -6.28910410	     -8.69823092	     -8.94926030	     21.13224866	    106.12184471
      0.74000000	      2.11142452	      4.47592617	     -4.52370169	      0.82407805	      0.94619841	     -0.23449308	      5.52607636	     -5.49447142	      1.18678355	     62.46344289	      1.09019274	    -20.14866838	    -19.82560591	     -7.20872595	     12.45975049	      8.72257206	     -0.78274506	     16.26229506	      0.28383059	      1.80657651	    -15.06242914	     -7.20872595	     -5.17574088	     -6.65621329	      2.93066734	     -2.90096808	     -3.36346283	    -11.83978302	     39.99178951	    112.54182713	     -5.04949018	     -8.54368040	     -8.60561138	     21.90927777	    106.26170143
      0.75000000	      1.99576237	      4.34016908	     -4.56393944	      0.83553905	      0.94776729	     -0.23524073	      7.80490500	     -5.31475470	      1.42541859	     63.96279765	      1.11636142	    -17.58003692	    -19.91261895	     -7.21904565	     11.48608487	      8.61710330	     -1.13416095	     15.78461397	      0.27549348	      2.89927395	    -13.82915953	     -7.21904565	     -5.17971177	     -6.46867498	      2.46203088	     -2.89594513	     -3.15328024	    -11.94755380	     38.25348700	    112.59786032	     -4.03075865	     -8.50791709	     -7.68306165	     22.79284548	    106.52882144
